<?xml version="1.0" standalone="no"?>
<svg viewBox="0 0 200 200" xmlns="http://www.w3.org/2000/svg">
  <path fill="#738DB7" d="M48.3,-70.6C62.6,-66,74.3,-52.6,77.2,-37.7C80.1,-22.9,74.2,-6.5,69.9,8.7C65.6,23.9,62.8,38,54.7,47.6C46.6,57.3,33.3,62.5,20.2,64.2C7.2,65.9,-5.6,64.1,-17.6,60.4C-29.7,56.7,-41.1,51.1,-54.3,43.1C-67.4,35,-82.3,24.5,-82.9,12.7C-83.4,0.8,-69.7,-12.4,-60.1,-25C-50.5,-37.6,-45.1,-49.6,-35.7,-56.5C-26.4,-63.3,-13.2,-65,1.9,-67.9C17,-70.9,34,-75.1,48.3,-70.6Z" transform="translate(100 100)" />
</svg>
