<?xml version="1.0" standalone="no"?>
<svg viewBox="0 0 200 200" xmlns="http://www.w3.org/2000/svg">
  <path fill="#898C9B" d="M47.6,-74.1C61.2,-65.2,71.6,-51.3,76.1,-36.3C80.6,-21.3,79.2,-5,77.7,11.8C76.3,28.6,74.8,46.1,66.5,60C58.2,73.9,43,84.2,27.3,85.5C11.5,86.8,-4.7,79,-18.5,71.3C-32.4,63.5,-43.9,55.7,-52.5,45.6C-61.1,35.5,-66.9,22.9,-68.6,10C-70.3,-3,-68,-16.5,-64,-30.8C-60,-45.2,-54.3,-60.4,-43.3,-70.5C-32.4,-80.6,-16.2,-85.5,0.4,-86.1C16.9,-86.7,33.9,-82.9,47.6,-74.1Z" transform="translate(100 100)" />
</svg>
