<?xml version="1.0" standalone="no"?>
<svg viewBox="0 0 200 200" xmlns="http://www.w3.org/2000/svg">
  <path fill="#0C244A" d="M39.6,-63.8C52.8,-61,66.1,-53.4,72.5,-42C79,-30.5,78.6,-15.3,79.4,0.4C80.1,16.1,81.9,32.2,75.8,44.3C69.7,56.3,55.7,64.3,41.8,70C27.8,75.7,13.9,79.1,-1.1,81C-16.2,83,-32.4,83.6,-44,76.6C-55.7,69.6,-62.8,55,-67.6,40.9C-72.4,26.9,-74.9,13.5,-74.3,0.3C-73.7,-12.8,-70,-25.5,-64.5,-38.4C-59.1,-51.2,-51.8,-64.2,-40.7,-68.3C-29.7,-72.3,-14.8,-67.5,-0.8,-66.1C13.2,-64.7,26.4,-66.6,39.6,-63.8Z" transform="translate(100 100)" />
</svg>
