<svg viewBox="0 0 32 32" xmlns="http://www.w3.org/2000/svg"><g data-name="27-Clipboard-Time"><path d="M3 5a1 1 0 0 1 1-1h3v1H5a1 1 0 0 0-1 1v22a1 1 0 0 0 1 1h6v-2H6V7h16v4h2V6a1 1 0 0 0-1-1h-2V4h3a1 1 0 0 1 1 1v7h2V5a3 3 0 0 0-3-3h-1a2 2 0 0 0-2-2H7a2 2 0 0 0-2 2H4a3 3 0 0 0-3 3v26a1 1 0 0 0 1 1h10v-2H3Zm6-3h10v3H9Z" fill="#e4e7ee" class="fill-000000"></path><path d="M22 14a9 9 0 1 0 9 9 9 9 0 0 0-9-9Zm0 16a7 7 0 1 1 7-7 7 7 0 0 1-7 7Z" fill="#e4e7ee" class="fill-000000"></path><path d="M23 19h-2v4a1 1 0 0 0 .29.71l3 3 1.41-1.41-2.7-2.71Z" fill="#e4e7ee" class="fill-000000"></path></g></svg>